<?xml version="1.0" encoding="UTF-8"?>
<svg xmlns="http://www.w3.org/2000/svg" id="a" width="865.76" height="682.89" viewBox="0 0 865.76 682.89">
  <line x1="66.38" y1="548.65" x2="799.38" y2="548.65" fill="none" stroke="#002346" stroke-linecap="round" stroke-linejoin="round"></line>
  <path d="m364.7,140.95s-49.07,25.26-56.12,155.75l-14.95,23.11,39.44-1.41,7.5-55s-3.7-66.97,24.12-122.44Z" fill="#7cd093" stroke="#002346" stroke-linecap="round" stroke-linejoin="round"></path>
  <path d="m364.7,140.95s-44.9,60.65-33.17,138.41" fill="none" stroke="#002346" stroke-linecap="round" stroke-linejoin="round"></path>
  <path d="m236.12,170.74s28.39,74.53,10.77,146.09l7.99,39.45,31.38,23.41,5.16-40.9-10.87-72.32s-3.58-59.9-44.43-95.74Z" fill="#7cd093" stroke="#002346" stroke-linecap="round" stroke-linejoin="round"></path>
  <path d="m305.89,449.1s46.73,11.01,71.63-39.35c0,0,15.37-26.27,23.44-58.4,0,0,16.13-48.92,32.21-62.04,0,0-39.46,16.75-54.87,74.43,0,0-9.55,41.62-32.93,47.43l-25.59,18.23-13.9,19.7Z" fill="#7cd093" stroke="#002346" stroke-linecap="round" stroke-linejoin="round"></path>
  <path d="m327.81,441.82s31.41.77,51.19-51.79c0,0,21.96-70.01,37.35-80.3" fill="none" stroke="#002346" stroke-linecap="round" stroke-linejoin="round"></path>
  <path d="m409.91,202.36s-41.65,15.29-49.76,72.25c0,0-11.87,56.66-23.14,65.19l-32.57,97.61s17.49,34.35,51.9-32.8c0,0,13.2-46.73,17.66-106.61,0,0,6.66-65.73,35.91-95.64Z" fill="#7cd093" stroke="#002346" stroke-linecap="round" stroke-linejoin="round"></path>
  <path d="m316.74,444.66s37.39-23.26,43.33-98.48c0,0,6.88-111.87,38.23-128.57" fill="none" stroke="#002346" stroke-linecap="round" stroke-linejoin="round"></path>
  <path d="m293.91,95.58s-19.07,64.98-14.77,128.53c0,0,.6,105.91-14.05,140.22l18.19,55.53,25.57-8,8.12-70.84s-12.57-48.74-12.11-105.24c.12-14.51-.51-29.02-1.87-43.47l-9.09-96.73Z" fill="#7cd093" stroke="#002346" stroke-linecap="round" stroke-linejoin="round"></path>
  <path d="m243.84,412.62s-40.83-45.45-55.37-98.06c0,0-32.03-86.96-53.19-103.78,0,0,11.89,2.39,42.07,38.3,4.75,5.66,9.29,11.5,13.54,17.55,5.27,7.49,16.58,21.52,28.29,23.14l24.67,122.85Z" fill="#7cd093" stroke="#002346" stroke-linecap="round" stroke-linejoin="round"></path>
  <path d="m135.28,210.78s45.23,42.42,56.87,84.8c0,0,12.72,42.46,26.78,47.55" fill="none" stroke="#002346" stroke-linecap="round" stroke-linejoin="round"></path>
  <path d="m129.32,305.72s27,19.02,51.04,73.83c0,0,50.28,90.63,109.48,66.6l-45.99-33.54s-24.18-9.95-45.92-45.71c-4.27-7.02-8.96-13.78-14.24-20.08-11.87-14.16-32.35-34.99-54.36-41.11Z" fill="#7cd093" stroke="#002346" stroke-linecap="round" stroke-linejoin="round"></path>
  <path d="m129.32,305.72s23.13,11.32,52.49,54.28c5.82,8.52,10.99,17.46,15.63,26.68,7.65,15.19,29.57,49.75,72.08,53.07" fill="none" stroke="#002346" stroke-linecap="round" stroke-linejoin="round"></path>
  <path d="m236.12,170.74s35.62,46.39,37,155.78" fill="none" stroke="#002346" stroke-linecap="round" stroke-linejoin="round"></path>
  <path d="m293.91,95.58s-3.91,96.56.14,185.85c.57,12.58,1.92,25.11,4.06,37.52l6.92,40.26" fill="none" stroke="#002346" stroke-linecap="round" stroke-linejoin="round"></path>
  <path d="m291.72,451.58s-63.23-20.83-73.35-106.3c0,0-11.49-160.7-47.22-207.49,0,0,68.59,55.59,79.4,173.2,0,0,12.34,62.83,47.36,89.9,0,0,13.26,29.84-6.19,50.69Z" fill="#7cd093" stroke="#002346" stroke-linecap="round" stroke-linejoin="round"></path>
  <path d="m171.16,137.79s56.89,65.08,58.97,154.18c0,0-2.96,81.79,55.36,144.32" fill="none" stroke="#002346" stroke-linecap="round" stroke-linejoin="round"></path>
  <path d="m291.59,407.24c-.66,2.41-1.35,4.81-2.06,7.2-2.71,9.1-11.23,42.53,10.88,39.4,0,0,16.43.39,28.9-40.5,0,0,10.99-24.82,7.41-83.99,0,0,.79-50.4,8.86-73.76,0,0-28.58,36.46-39.55,95.52-1.43,7.68-3.24,15.28-5.31,22.82l-9.13,33.31Z" fill="#7cd093" stroke="#002346" stroke-linecap="round" stroke-linejoin="round"></path>
  <path d="m345.57,255.6s-18.29,27.73-15.45,93.47c0,0,1.38,61.35-29.71,104.77" fill="none" stroke="#002346" stroke-linecap="round" stroke-linejoin="round"></path>
  <path d="m181.31,441.07l36.67,133.14c2.11,7.66,9.07,12.97,17.02,12.98l96.99.12c7.94,0,14.92-5.28,17.05-12.94l37-133.05-204.73-.25Z" fill="#fbe493" stroke="#002346" stroke-miterlimit="10"></path>
  <rect x="170.23" y="428.16" width="226.9" height="22.17" rx="10.19" ry="10.19" transform="translate(.55 -.35) rotate(.07)" fill="#fff" stroke="#002346" stroke-miterlimit="10"></rect>
  <path d="m477.46,192.34s23.66,33.94,27.77,98.74l54.51,49.37,21.6-22.63-20.02-35.7-27.29-35.28-1.03-12.34-3.09,7.2s-30.86-51.43-52.46-49.37Z" fill="#7cd093" stroke="#002346" stroke-linecap="round" stroke-linejoin="round"></path>
  <path d="m477.63,192.42c-.09-.04-.19,0-.22.1-.28,1.18-1.51,8.36,3.13,30.67l9.26,58.63,34.97,23.66-6.35-27.78c-1.36-5.96-3.1-11.82-5.19-17.56-7.02-19.21-23.7-61.84-35.6-67.72Z" fill="#62cc7b" stroke="#002346" stroke-linecap="round" stroke-linejoin="round"></path>
  <path d="m709.47,194.05l-3.66,30.18c-1.03,39.09-24.69,120.34-24.69,120.34-15.43,76.11-62.76,103.77-62.76,103.77l1.39-12.03,20.23-175.05,13.37-13.37v-14.4c0-1.03,4.11,7.2,4.11,7.2l16.46-20.57c12.34-14.4,25.4-24.27,32.57-28.1,1.28-.68,2.77.15,2.96,1.47.03.19.03.37.01.57Z" fill="#7cd093" stroke="#002346" stroke-linecap="round" stroke-linejoin="round"></path>
  <path d="m709.47,194.05l-3.66,30.18c-1.03,39.09-24.69,120.34-24.69,120.34-15.43,76.11-62.76,103.77-62.76,103.77l1.39-12.03,22.29-34.14c8.23,1.03,15.43-11.31,15.43-11.31l-5.14-1.03,12.34-32.91c6.17-4.11,10.29-12.34,10.29-12.34l-5.14-1.03c7.2-19.54,12.34-55.54,12.34-55.54,7.2-3.09,8.23-10.29,8.23-10.29l-7.2,2.06,7.2-38.06c7.2-6.17,9.26-17.49,9.26-17.49l-5.14,1.03c2.99-10.48,10.89-24.77,14.97-31.77.03.19.03.37.01.57Z" fill="#62cc7b" stroke="#002346" stroke-linecap="round" stroke-linejoin="round"></path>
  <path d="m730.49,305.48l5.14,1.03-7.2,5.14c-4.11,14.4-12.34,36-12.34,36l-34.97,39.09h-17.49l21.5-59.77,18.62-25.6c13.95-20.45,33.77-32.5,37.45-34.63.4-.23.61-.34.61-.34l-11.31,39.09Z" fill="#7cd093" stroke="#002346" stroke-linecap="round" stroke-linejoin="round"></path>
  <path d="m730.49,305.48l5.14,1.03-7.2,5.14c-4.11,14.4-12.34,36-12.34,36l-34.97,39.09h-2.86c9.1-10.65,22.74-28.75,31.66-50.4,0,0,18.31-48.83,31.28-69.6.4-.23.61-.34.61-.34l-11.31,39.09Z" fill="#62cc7b" stroke="#002346" stroke-linecap="round" stroke-linejoin="round"></path>
  <path d="m736.66,335.31l-.93,1.52-33.6,55.14c-3.72,6.1-7.84,11.95-12.32,17.52l-18.98,23.53c-25.3,25.3-52.11,23.26-59.66,22.06-1.36-.23-2.09-.41-2.09-.41l58.98-69.21c17.8-18.77,68.6-50.15,68.6-50.15Z" fill="#7cd093" stroke="#002346" stroke-linecap="round" stroke-linejoin="round"></path>
  <path d="m582.38,451.54c-1.79.17-3.58.16-5.36-.01-.02,0-.03-.01-.05-.01-18.62-2.78-35.73-31.87-35.73-31.87l-7.2-5.14,3.09-5.14-14.4-27.77-12.34-9.26,7.2-2.06-16.46-41.14-12.34-8.23,6.17-2.06c-9.05-20.11-26.95-47.1-27.75-48.3-.01-.01-.01-.02-.01-.03h-.01c31.89,6.16,72,38.05,72,38.05l4.11-6.17,5.14,13.37,13.37,10.29,20.57,125.49Z" fill="#7cd093" stroke="#002346" stroke-linecap="round" stroke-linejoin="round"></path>
  <path d="m582.38,451.54c-1.79.27-3.59.25-5.36-.01,1.78.17,3.57.19,5.36.01Z" fill="none" stroke="red" stroke-miterlimit="10"></path>
  <path d="m576.97,451.52c-41.08-4.12-77.9-96.67-77.9-96.67-9.68-26.15-29.4-77.84-31.67-83.78-.03-.07.07-.12.11-.06,2.54,3.84,18.92,28.9,27.44,47.84l-6.17,2.06,12.34,8.23,16.46,41.14-7.2,2.06,12.34,9.26,14.4,27.77-3.09,5.14,7.2,5.14s17.12,29.09,35.73,31.87Z" fill="#62cc7b" stroke="#002346" stroke-linecap="round" stroke-linejoin="round"></path>
  <path d="m628.75,436.45c-7.64,10.35-14.3,14.81-14.3,14.81l-27.97-172.52c26.74-61.71,49.37-72,49.37-72,1.03,17.49,8.23,72,8.23,72,5.14,28.8,7.2,77.14,7.2,77.14.6,40.63-11.93,66.24-22.54,80.57Z" fill="#7cd093" stroke="#002346" stroke-linecap="round" stroke-linejoin="round"></path>
  <path d="m638.95,394.97l7.2-13.37-4.11-2.06-2.06-34.97c8.23-7.2,6.17-14.4,6.17-14.4l-7.2,1.03-6.17-49.37c6.17-5.14,6.17-12.34,6.17-12.34h-6.17c-3.67-24.76,1.66-55.24,2.86-61.56.03-.18.29-.17.31.01,1.26,18.64,8.15,70.81,8.15,70.81,5.14,28.8,7.2,77.14,7.2,77.14.6,40.63-11.93,66.24-22.54,80.57,10.3-19.75,10.19-41.48,10.19-41.48Z" fill="#62cc7b" stroke="#002346" stroke-linecap="round" stroke-linejoin="round"></path>
  <path d="m735.74,336.84l-33.6,55.14c-3.72,6.1-7.84,11.95-12.32,17.52l-18.98,23.53c-25.3,25.3-52.11,23.26-59.66,22.06,11.61-1.86,40.71-9.72,64.8-42.63,0,0,42.59-58.57,59.76-75.62Z" fill="#62cc7b" stroke="#002346" stroke-linecap="round" stroke-linejoin="round"></path>
  <path d="m581.8,455.16s-35.42,5.64-62.17-25.22c0,0-48.34-51.43-70.97-106.97,0,0,.62.16,1.78.57,6.08,2.12,27.03,10.7,51.91,35.61l41.97,46.11,29.99,39.94,7.49,9.97Z" fill="#7cd093" stroke="#002346" stroke-linecap="round" stroke-linejoin="round"></path>
  <path d="m581.8,455.16s-35.42,5.64-62.17-25.22c0,0-48.34-51.43-70.97-106.97,0,0,.62.16,1.78.57,7.49,7.96,19.31,22.09,31.13,42.63,18.19,31.6,52.42,71.21,92.74,79.03l7.49,9.97Z" fill="#62cc7b" stroke="#002346" stroke-linecap="round" stroke-linejoin="round"></path>
  <path d="m559.23,237.08s5.66,34.46.51,58.11l-6.17-1.03,6.17,10.29-3.09,46.29-6.17,1.03,6.17,7.2s1.03,39.09,3.09,50.4l-7.2,4.11,7.2,4.11s0,40.11,37.03,40.11c0,0,28.8,0,27.77-31.89,0,0-1.03-24.69-4.11-47.31l5.14-7.2h-6.17s-4.11-31.89-12.34-52.46l3.09-8.23-5.14,2.06s-19.54-63.77-45.77-75.6Z" fill="#7cd093" stroke="#002346" stroke-linecap="round" stroke-linejoin="round"></path>
  <path d="m487.36,433.4l38.82,140.26c2.23,8.07,9.58,13.66,17.95,13.66h102.22c8.37,0,15.71-5.59,17.95-13.66l38.82-140.26h-215.76Z" fill="#f58f74" stroke="#002346" stroke-linecap="round" stroke-linejoin="round"></path>
  <rect x="475.67" y="419.66" width="239.12" height="23.36" rx="10.74" ry="10.74" fill="#fff" stroke="#002346" stroke-miterlimit="10"></rect>
</svg>
